<svg width="18" height="18" viewBox="0 0 18 18" fill="none" xmlns="http://www.w3.org/2000/svg">
<path d="M9.41699 5.50825L8.16699 4.83325V9.83325L12.542 12.4499L13.167 11.4333L9.41699 9.20825V5.50825Z" fill="black"/>
<path d="M9 0.875C6.84579 0.877206 4.78045 1.73393 3.25719 3.25719C1.73394 4.78044 0.877206 6.84579 0.875 9C0.877206 11.1542 1.73394 13.2196 3.25719 14.7428C4.78045 16.2661 6.84579 17.1228 9 17.125C11.1542 17.1228 13.2196 16.2661 14.7428 14.7428C16.2661 13.2196 17.1228 11.1542 17.125 9C17.1228 6.84579 16.2661 4.78044 14.7428 3.25719C13.2196 1.73393 11.1542 0.877206 9 0.875ZM9 15.875C7.17731 15.8728 5.42991 15.1478 4.14108 13.8589C2.85224 12.5701 2.12721 10.8227 2.125 9C2.12721 7.17731 2.85224 5.42991 4.14108 4.14108C5.42991 2.85225 7.17731 2.12721 9 2.125C10.8227 2.12721 12.5701 2.85225 13.8589 4.14108C15.1478 5.42991 15.8728 7.17731 15.875 9C15.8728 10.8227 15.1478 12.5701 13.8589 13.8589C12.5701 15.1478 10.8227 15.8728 9 15.875Z" fill="black"/>
</svg>
