<?xml version="1.0"?>
<svg width="52" height="32" xmlns="http://www.w3.org/2000/svg" xmlns:svg="http://www.w3.org/2000/svg">
 <defs>
  <clipPath id="clip0_482_2910">
   <rect fill="white" height="32" id="svg_1" width="51.72"/>
  </clipPath>
 </defs>
 <g class="layer">
  <title>Layer 1</title>
  <g clip-path="url(#clip0_482_2910)" id="svg_2">
   <path d="m41.69,15.92l4.83,9.05l4.75,0l-9.58,-17.93l-9.57,17.93l4.75,0l4.82,-9.05z" fill="#ffffff" id="svg_3"/>
   <path d="m25.98,20.77l0.01,-13.76l-4.19,0l0,17.96l8.08,0l2.24,-4.2l-6.14,0z" fill="#ffffff" id="svg_4"/>
   <path d="m10.04,6.37c-1.9,0 -3.75,0.56 -5.32,1.62c-1.58,1.06 -2.81,2.56 -3.54,4.32c-0.72,1.76 -0.91,3.69 -0.55,5.56c0.37,1.87 1.28,3.58 2.62,4.93c1.34,1.35 3.05,2.27 4.9,2.64c1.86,0.37 3.79,0.18 5.54,-0.54c1.75,-0.73 3.24,-1.97 4.3,-3.55c1.05,-1.58 1.61,-3.45 1.61,-5.35c0,-2.55 -1.01,-5 -2.8,-6.8c-1.79,-1.81 -4.22,-2.82 -6.76,-2.83zm0,14.82c-1.02,0 -2.02,-0.3 -2.87,-0.87c-0.85,-0.57 -1.51,-1.38 -1.91,-2.33c-0.39,-0.94 -0.49,-1.99 -0.3,-2.99c0.2,-1.01 0.69,-1.94 1.41,-2.66c0.72,-0.73 1.64,-1.22 2.64,-1.43c1.01,-0.2 2.04,-0.1 2.99,0.3c0.94,0.39 1.75,1.05 2.31,1.91c0.57,0.85 0.87,1.85 0.87,2.88c0,1.38 -0.55,2.7 -1.51,3.67c-0.97,0.97 -2.29,1.52 -3.66,1.52l0.03,0z" fill="#ffffff" id="svg_5"/>
  </g>
 </g>
</svg>